<?xml version="1.0" encoding="UTF-8" standalone="no"?>
<svg
   width="100%"
   height="100%"
   viewBox="0 0 50 50"
   version="1.1"
   xml:space="preserve"
   style="fill-rule:evenodd;clip-rule:evenodd;stroke-linejoin:round;stroke-miterlimit:2;"
   id="svg52"
   sodipodi:docname="instagram.svg"
   inkscape:version="1.2 (dc2aedaf03, 2022-05-15)"
   xmlns:inkscape="http://www.inkscape.org/namespaces/inkscape"
   xmlns:sodipodi="http://sodipodi.sourceforge.net/DTD/sodipodi-0.dtd"
   xmlns="http://www.w3.org/2000/svg"
   xmlns:svg="http://www.w3.org/2000/svg"><defs
   id="defs56" /><sodipodi:namedview
   id="namedview54"
   pagecolor="#505050"
   bordercolor="#eeeeee"
   borderopacity="1"
   inkscape:showpageshadow="0"
   inkscape:pageopacity="0"
   inkscape:pagecheckerboard="0"
   inkscape:deskcolor="#505050"
   showgrid="false"
   inkscape:zoom="13.350176"
   inkscape:cx="17.715122"
   inkscape:cy="25.130755"
   inkscape:window-width="1920"
   inkscape:window-height="991"
   inkscape:window-x="542"
   inkscape:window-y="1791"
   inkscape:window-maximized="1"
   inkscape:current-layer="svg52" />
    <path
   id="path1125"
   style="fill-rule:evenodd;clip-rule:evenodd;stroke-linejoin:round;stroke-miterlimit:2;fill:#ff6300"
   d="M 14 4 C 8.489022 4 4 8.489022 4 14 L 4 36 C 4 41.510976 8.489022 46 14 46 L 36 46 C 41.510976 46 46 41.510976 46 36 L 46 14 C 46 8.489022 41.510976 4 36 4 L 14 4 z M 24.996094 10.996094 C 28.800693 10.996094 29.277272 11.011901 30.771484 11.080078 C 32.262585 11.148144 33.280797 11.384135 34.171875 11.730469 C 35.093094 12.088478 35.875438 12.5669 36.654297 13.345703 C 37.433101 14.124507 37.911522 14.906907 38.269531 15.828125 C 38.615809 16.719203 38.851912 17.737415 38.919922 19.228516 C 38.988099 20.722728 39.003906 21.199251 39.003906 25.003906 C 39.003906 28.808506 38.988099 29.287036 38.919922 30.78125 C 38.851912 32.27235 38.615809 33.290563 38.269531 34.181641 C 37.911522 35.102859 37.433101 35.883251 36.654297 36.662109 C 35.875438 37.440915 35.093094 37.919333 34.171875 38.277344 C 33.280797 38.623619 32.262585 38.861678 30.771484 38.929688 C 29.277272 38.997862 28.800693 39.013672 24.996094 39.013672 C 21.191439 39.013672 20.712964 38.997862 19.21875 38.929688 C 17.727649 38.861678 16.709493 38.623619 15.818359 38.277344 C 14.897141 37.919333 14.116694 37.440915 13.337891 36.662109 C 12.559085 35.883251 12.080668 35.102859 11.722656 34.181641 C 11.376325 33.290563 11.138378 32.27235 11.070312 30.78125 C 11.002138 29.287036 10.986328 28.808506 10.986328 25.003906 C 10.986328 21.199251 11.002138 20.722728 11.070312 19.228516 C 11.138378 17.737415 11.376325 16.719203 11.722656 15.828125 C 12.080668 14.906907 12.559085 14.124507 13.337891 13.345703 C 14.116694 12.5669 14.897141 12.088478 15.818359 11.730469 C 16.709493 11.384135 17.727649 11.148144 19.21875 11.080078 C 20.712964 11.011901 21.191439 10.996094 24.996094 10.996094 z M 24.996094 13.519531 C 21.255498 13.519531 20.811182 13.534166 19.333984 13.601562 C 17.968117 13.6639 17.228017 13.892191 16.734375 14.083984 C 16.08047 14.338118 15.613295 14.640667 15.123047 15.130859 C 14.632853 15.621054 14.328295 16.088336 14.074219 16.742188 C 13.882367 17.235828 13.654135 17.977881 13.591797 19.34375 C 13.524399 20.820948 13.509766 21.263313 13.509766 25.003906 C 13.509766 28.744446 13.524399 29.188818 13.591797 30.666016 C 13.654135 32.031883 13.882367 32.771983 14.074219 33.265625 C 14.328295 33.91953 14.632853 34.386761 15.123047 34.876953 C 15.613295 35.367203 16.08047 35.671649 16.734375 35.925781 C 17.228017 36.117632 17.968117 36.345921 19.333984 36.408203 C 20.811015 36.475601 21.25522 36.490234 24.996094 36.490234 C 28.73691 36.490234 29.179275 36.475601 30.65625 36.408203 C 32.022119 36.345921 32.764173 36.117632 33.257812 35.925781 C 33.91172 35.671649 34.378946 35.367203 34.869141 34.876953 C 35.359389 34.386761 35.661882 33.91953 35.916016 33.265625 C 36.107865 32.771983 36.336155 32.031883 36.398438 30.666016 C 36.465834 29.188818 36.480469 28.744446 36.480469 25.003906 C 36.480469 21.263313 36.465834 20.820948 36.398438 19.34375 C 36.336155 17.977881 36.107865 17.235828 35.916016 16.742188 C 35.661882 16.088336 35.359389 15.621054 34.869141 15.130859 C 34.378946 14.640667 33.91172 14.338118 33.257812 14.083984 C 32.764173 13.892191 32.022119 13.6639 30.65625 13.601562 C 29.179052 13.534166 28.736632 13.519531 24.996094 13.519531 z M 32.474609 15.845703 C 33.403059 15.845703 34.154297 16.596941 34.154297 17.525391 C 34.154297 18.45384 33.403059 19.207031 32.474609 19.207031 C 31.546216 19.207031 30.792969 18.45384 30.792969 17.525391 C 30.792969 16.596941 31.546216 15.845703 32.474609 15.845703 z M 24.996094 17.810547 C 28.969145 17.810547 32.189453 21.030799 32.189453 25.003906 C 32.189453 28.976958 28.969145 32.199219 24.996094 32.199219 C 21.022986 32.199219 17.800781 28.976958 17.800781 25.003906 C 17.800781 21.030799 21.022986 17.810547 24.996094 17.810547 z M 24.996094 20.333984 C 22.417052 20.333984 20.326172 22.424865 20.326172 25.003906 C 20.326172 27.582892 22.417052 29.673828 24.996094 29.673828 C 27.57508 29.673828 29.666016 27.582892 29.666016 25.003906 C 29.666016 22.424865 27.57508 20.333984 24.996094 20.333984 z " /><g
   id="g1080" />
</svg>
