<?xml version="1.0" encoding="UTF-8" standalone="no"?>
<!DOCTYPE svg PUBLIC "-//W3C//DTD SVG 1.1//EN" "http://www.w3.org/Graphics/SVG/1.1/DTD/svg11.dtd">
<svg width="100%" height="100%" viewBox="0 0 2049 690" version="1.1" xmlns="http://www.w3.org/2000/svg" xmlns:xlink="http://www.w3.org/1999/xlink" xml:space="preserve" xmlns:serif="http://www.serif.com/" style="fill-rule:evenodd;clip-rule:evenodd;stroke-linejoin:round;stroke-miterlimit:2;">
    <g transform="matrix(1,0,0,1,-162,-1263)">
        <g transform="matrix(2.21382,0,0,2.51096,-1684.81,-2673.13)">
            <path d="M1240.16,1598.99C1240.16,1581.62 1224.17,1567.53 1204.48,1567.53L869.837,1567.53C850.143,1567.53 834.154,1581.62 834.154,1598.99L834.154,1810.77C834.154,1828.13 850.143,1842.23 869.837,1842.23L1204.48,1842.23C1224.17,1842.23 1240.16,1828.13 1240.16,1810.77L1240.16,1598.99Z" style="fill:rgb(255,99,0);fill-opacity:0;"/>
            <path d="M1240.16,1598.99C1240.16,1581.62 1224.17,1567.53 1204.48,1567.53L869.837,1567.53C850.143,1567.53 834.154,1581.62 834.154,1598.99L834.154,1810.77C834.154,1828.13 850.143,1842.23 869.837,1842.23L1204.48,1842.23C1224.17,1842.23 1240.16,1828.13 1240.16,1810.77L1240.16,1598.99ZM1226.29,1598.99L1226.29,1810.77C1226.29,1821.38 1216.51,1830 1204.48,1830C1204.48,1830 869.837,1830 869.837,1830C857.799,1830 848.026,1821.38 848.026,1810.77L848.026,1598.99C848.026,1588.37 857.799,1579.76 869.837,1579.76C869.837,1579.76 1204.48,1579.76 1204.48,1579.76C1216.51,1579.76 1226.29,1588.37 1226.29,1598.99Z" style="fill:rgb(255,99,0);"/>
        </g>
        <g transform="matrix(4.4394,0,0,4.4394,-5762.01,-7373.92)">
            <g transform="matrix(1,0,0,1,-91.1952,-6.80282)">
                <g transform="matrix(78.369,0,0,78.369,1442.23,2022.29)">
                    <path d="M0.508,-0.564L0.319,-0.564L0.319,-0L0.231,-0L0.231,-0.564L0.042,-0.564L0.042,-0.638L0.508,-0.638L0.508,-0.564Z" style="fill:rgb(255,102,0);fill-rule:nonzero;"/>
                </g>
                <g transform="matrix(78.369,0,0,78.369,1484.54,2022.29)">
                    <path d="M0.513,-0L0.415,-0L0.32,-0.204C0.313,-0.22 0.305,-0.233 0.298,-0.243C0.29,-0.253 0.282,-0.261 0.274,-0.267C0.265,-0.273 0.256,-0.278 0.245,-0.28C0.235,-0.283 0.224,-0.284 0.211,-0.284L0.17,-0.284L0.17,-0L0.083,-0L0.083,-0.638L0.254,-0.638C0.291,-0.638 0.323,-0.634 0.35,-0.626C0.376,-0.618 0.398,-0.606 0.415,-0.592C0.432,-0.577 0.445,-0.559 0.453,-0.539C0.461,-0.518 0.465,-0.495 0.465,-0.47C0.465,-0.45 0.462,-0.432 0.456,-0.414C0.45,-0.396 0.441,-0.38 0.43,-0.365C0.418,-0.351 0.404,-0.338 0.387,-0.328C0.37,-0.317 0.35,-0.309 0.328,-0.304C0.346,-0.298 0.361,-0.287 0.374,-0.272C0.386,-0.256 0.399,-0.236 0.412,-0.21L0.513,-0ZM0.374,-0.463C0.374,-0.497 0.363,-0.523 0.342,-0.54C0.321,-0.556 0.291,-0.565 0.252,-0.565L0.17,-0.565L0.17,-0.354L0.24,-0.354C0.261,-0.354 0.279,-0.356 0.296,-0.361C0.312,-0.366 0.326,-0.373 0.338,-0.382C0.349,-0.391 0.358,-0.403 0.365,-0.416C0.371,-0.43 0.374,-0.445 0.374,-0.463Z" style="fill:rgb(255,102,0);fill-rule:nonzero;"/>
                </g>
                <g transform="matrix(78.369,0,0,78.369,1526.84,2022.29)">
                    <path d="M0.545,-0L0.45,-0L0.406,-0.139L0.14,-0.139L0.095,-0L0.005,-0L0.217,-0.638L0.336,-0.638L0.545,-0ZM0.381,-0.217L0.273,-0.558L0.165,-0.217L0.381,-0.217Z" style="fill:rgb(255,102,0);fill-rule:nonzero;"/>
                </g>
                <g transform="matrix(78.369,0,0,78.369,1569.15,2022.29)">
                    <path d="M0.497,-0.222C0.497,-0.187 0.492,-0.155 0.482,-0.127C0.472,-0.098 0.458,-0.074 0.438,-0.054C0.419,-0.034 0.396,-0.018 0.368,-0.008C0.34,0.003 0.308,0.009 0.272,0.009C0.232,0.009 0.199,0.004 0.171,-0.007C0.143,-0.017 0.121,-0.032 0.103,-0.051C0.086,-0.07 0.073,-0.093 0.065,-0.12C0.057,-0.146 0.053,-0.176 0.053,-0.209L0.053,-0.638L0.14,-0.638L0.14,-0.216C0.14,-0.191 0.142,-0.169 0.147,-0.15C0.152,-0.131 0.16,-0.115 0.17,-0.103C0.181,-0.09 0.195,-0.08 0.212,-0.074C0.229,-0.067 0.25,-0.064 0.275,-0.064C0.321,-0.064 0.355,-0.077 0.377,-0.104C0.399,-0.131 0.41,-0.168 0.41,-0.217L0.41,-0.638L0.497,-0.638L0.497,-0.222Z" style="fill:rgb(255,102,0);fill-rule:nonzero;"/>
                </g>
            </g>
            <g transform="matrix(1,0,0,1,-93.4237,-68.308)">
                <g transform="matrix(78.369,0,0,78.369,1444.75,2148.49)">
                    <path d="M0.486,-0.024C0.435,-0.003 0.381,0.008 0.325,0.008C0.235,0.008 0.166,-0.019 0.117,-0.073C0.069,-0.127 0.045,-0.207 0.045,-0.312C0.045,-0.363 0.052,-0.409 0.065,-0.451C0.078,-0.492 0.097,-0.527 0.122,-0.556C0.147,-0.585 0.177,-0.607 0.212,-0.623C0.247,-0.638 0.286,-0.646 0.33,-0.646C0.36,-0.646 0.387,-0.643 0.413,-0.638C0.438,-0.633 0.462,-0.626 0.486,-0.615L0.486,-0.53C0.463,-0.542 0.439,-0.552 0.414,-0.559C0.389,-0.566 0.362,-0.569 0.333,-0.569C0.303,-0.569 0.276,-0.563 0.252,-0.552C0.227,-0.541 0.207,-0.524 0.19,-0.503C0.173,-0.482 0.16,-0.456 0.151,-0.425C0.142,-0.394 0.137,-0.359 0.137,-0.32C0.137,-0.237 0.154,-0.175 0.188,-0.133C0.221,-0.091 0.27,-0.07 0.335,-0.07C0.362,-0.07 0.389,-0.073 0.414,-0.079C0.439,-0.086 0.463,-0.095 0.486,-0.106L0.486,-0.024Z" style="fill:rgb(255,102,0);fill-rule:nonzero;"/>
                </g>
                <g transform="matrix(78.369,0,0,78.369,1487.05,2148.49)">
                    <path d="M0.523,-0.323C0.523,-0.266 0.516,-0.216 0.503,-0.175C0.489,-0.133 0.471,-0.099 0.448,-0.072C0.425,-0.044 0.398,-0.024 0.367,-0.011C0.337,0.002 0.304,0.009 0.27,0.009C0.229,0.009 0.193,0.001 0.163,-0.013C0.132,-0.028 0.107,-0.05 0.087,-0.078C0.067,-0.106 0.052,-0.14 0.042,-0.18C0.033,-0.22 0.028,-0.265 0.028,-0.316C0.028,-0.373 0.035,-0.422 0.048,-0.463C0.061,-0.505 0.079,-0.539 0.102,-0.567C0.125,-0.594 0.152,-0.614 0.183,-0.627C0.213,-0.64 0.246,-0.647 0.28,-0.647C0.321,-0.647 0.357,-0.639 0.387,-0.625C0.417,-0.61 0.443,-0.588 0.463,-0.56C0.483,-0.532 0.498,-0.499 0.508,-0.458C0.518,-0.418 0.523,-0.373 0.523,-0.323ZM0.433,-0.317C0.433,-0.354 0.43,-0.389 0.424,-0.42C0.418,-0.451 0.409,-0.478 0.396,-0.5C0.384,-0.522 0.367,-0.54 0.347,-0.552C0.327,-0.565 0.303,-0.571 0.275,-0.571C0.248,-0.571 0.224,-0.564 0.204,-0.551C0.185,-0.538 0.168,-0.52 0.156,-0.497C0.143,-0.475 0.134,-0.448 0.127,-0.418C0.121,-0.387 0.118,-0.355 0.118,-0.321C0.118,-0.283 0.121,-0.249 0.127,-0.218C0.133,-0.186 0.142,-0.16 0.155,-0.137C0.167,-0.115 0.183,-0.098 0.203,-0.085C0.223,-0.073 0.247,-0.067 0.275,-0.067C0.302,-0.067 0.326,-0.073 0.346,-0.087C0.366,-0.1 0.382,-0.118 0.395,-0.14C0.408,-0.163 0.417,-0.189 0.423,-0.22C0.43,-0.25 0.433,-0.282 0.433,-0.317Z" style="fill:rgb(255,102,0);fill-rule:nonzero;"/>
                </g>
                <g transform="matrix(78.369,0,0,78.369,1529.36,2148.49)">
                    <path d="M0.492,-0L0.379,-0L0.193,-0.398L0.139,-0.526L0.139,-0L0.058,-0L0.058,-0.638L0.17,-0.638L0.347,-0.261L0.411,-0.115L0.411,-0.638L0.492,-0.638L0.492,-0Z" style="fill:rgb(255,102,0);fill-rule:nonzero;"/>
                </g>
                <g transform="matrix(78.369,0,0,78.369,1571.66,2148.49)">
                    <path d="M0.487,-0.173C0.487,-0.143 0.481,-0.116 0.468,-0.093C0.456,-0.07 0.439,-0.052 0.417,-0.036C0.394,-0.021 0.368,-0.01 0.337,-0.002C0.306,0.005 0.271,0.009 0.234,0.009C0.217,0.009 0.2,0.008 0.183,0.007C0.167,0.006 0.15,0.004 0.135,0.002C0.12,-0 0.105,-0.002 0.091,-0.005C0.078,-0.007 0.065,-0.01 0.054,-0.013L0.054,-0.097C0.079,-0.088 0.106,-0.081 0.136,-0.076C0.167,-0.07 0.201,-0.068 0.24,-0.068C0.268,-0.068 0.292,-0.07 0.312,-0.074C0.331,-0.079 0.348,-0.085 0.36,-0.094C0.373,-0.103 0.382,-0.113 0.387,-0.125C0.393,-0.138 0.396,-0.152 0.396,-0.168C0.396,-0.185 0.391,-0.2 0.382,-0.212C0.372,-0.224 0.359,-0.235 0.344,-0.245C0.328,-0.254 0.31,-0.263 0.29,-0.271C0.27,-0.279 0.25,-0.287 0.229,-0.296C0.208,-0.304 0.188,-0.314 0.168,-0.323C0.148,-0.333 0.13,-0.345 0.114,-0.359C0.099,-0.372 0.086,-0.388 0.076,-0.406C0.067,-0.424 0.062,-0.446 0.062,-0.471C0.062,-0.493 0.067,-0.514 0.076,-0.536C0.085,-0.557 0.099,-0.576 0.118,-0.592C0.137,-0.608 0.162,-0.622 0.192,-0.632C0.222,-0.642 0.258,-0.647 0.3,-0.647C0.311,-0.647 0.322,-0.646 0.335,-0.646C0.347,-0.645 0.36,-0.643 0.373,-0.641C0.386,-0.64 0.398,-0.638 0.411,-0.635C0.423,-0.633 0.435,-0.631 0.446,-0.628L0.446,-0.55C0.421,-0.557 0.396,-0.562 0.371,-0.566C0.346,-0.57 0.321,-0.572 0.298,-0.572C0.248,-0.572 0.211,-0.563 0.188,-0.547C0.165,-0.53 0.153,-0.508 0.153,-0.48C0.153,-0.463 0.158,-0.448 0.167,-0.436C0.177,-0.423 0.189,-0.412 0.205,-0.402C0.221,-0.393 0.239,-0.384 0.259,-0.376C0.279,-0.368 0.299,-0.36 0.32,-0.351C0.341,-0.343 0.361,-0.333 0.381,-0.323C0.401,-0.313 0.419,-0.301 0.435,-0.287C0.45,-0.274 0.463,-0.257 0.472,-0.239C0.482,-0.22 0.487,-0.198 0.487,-0.173Z" style="fill:rgb(255,102,0);fill-rule:nonzero;"/>
                </g>
            </g>
        </g>
        <g id="SSNIGGCONSULTING" transform="matrix(4.4394,0,0,4.4394,-6393.07,-7558.6)">
            <g transform="matrix(1,0,0,1,245.64,35.1424)">
                <g transform="matrix(78.369,0,0,78.369,1442.23,2022.29)">
                    <path d="M0.487,-0.173C0.487,-0.143 0.481,-0.116 0.468,-0.093C0.456,-0.07 0.439,-0.052 0.417,-0.036C0.394,-0.021 0.368,-0.01 0.337,-0.002C0.306,0.005 0.271,0.009 0.234,0.009C0.217,0.009 0.2,0.008 0.183,0.007C0.167,0.006 0.15,0.004 0.135,0.002C0.12,-0 0.105,-0.002 0.091,-0.005C0.078,-0.007 0.065,-0.01 0.054,-0.013L0.054,-0.097C0.079,-0.088 0.106,-0.081 0.136,-0.076C0.167,-0.07 0.201,-0.068 0.24,-0.068C0.268,-0.068 0.292,-0.07 0.312,-0.074C0.331,-0.079 0.348,-0.085 0.36,-0.094C0.373,-0.103 0.382,-0.113 0.387,-0.125C0.393,-0.138 0.396,-0.152 0.396,-0.168C0.396,-0.185 0.391,-0.2 0.382,-0.212C0.372,-0.224 0.359,-0.235 0.344,-0.245C0.328,-0.254 0.31,-0.263 0.29,-0.271C0.27,-0.279 0.25,-0.287 0.229,-0.296C0.208,-0.304 0.188,-0.314 0.168,-0.323C0.148,-0.333 0.13,-0.345 0.114,-0.359C0.099,-0.372 0.086,-0.388 0.076,-0.406C0.067,-0.424 0.062,-0.446 0.062,-0.471C0.062,-0.493 0.067,-0.514 0.076,-0.536C0.085,-0.557 0.099,-0.576 0.118,-0.592C0.137,-0.608 0.162,-0.622 0.192,-0.632C0.222,-0.642 0.258,-0.647 0.3,-0.647C0.311,-0.647 0.322,-0.646 0.335,-0.646C0.347,-0.645 0.36,-0.643 0.373,-0.641C0.386,-0.64 0.398,-0.638 0.411,-0.635C0.423,-0.633 0.435,-0.631 0.446,-0.628L0.446,-0.55C0.421,-0.557 0.396,-0.562 0.371,-0.566C0.346,-0.57 0.321,-0.572 0.298,-0.572C0.248,-0.572 0.211,-0.563 0.188,-0.547C0.165,-0.53 0.153,-0.508 0.153,-0.48C0.153,-0.463 0.158,-0.448 0.167,-0.436C0.177,-0.423 0.189,-0.412 0.205,-0.402C0.221,-0.393 0.239,-0.384 0.259,-0.376C0.279,-0.368 0.299,-0.36 0.32,-0.351C0.341,-0.343 0.361,-0.333 0.381,-0.323C0.401,-0.313 0.419,-0.301 0.435,-0.287C0.45,-0.274 0.463,-0.257 0.472,-0.239C0.482,-0.22 0.487,-0.198 0.487,-0.173Z" style="fill:rgb(255,209,179);fill-rule:nonzero;"/>
                </g>
                <g transform="matrix(78.369,0,0,78.369,1484.54,2022.29)">
                    <path d="M0.487,-0.173C0.487,-0.143 0.481,-0.116 0.468,-0.093C0.456,-0.07 0.439,-0.052 0.417,-0.036C0.394,-0.021 0.368,-0.01 0.337,-0.002C0.306,0.005 0.271,0.009 0.234,0.009C0.217,0.009 0.2,0.008 0.183,0.007C0.167,0.006 0.15,0.004 0.135,0.002C0.12,-0 0.105,-0.002 0.091,-0.005C0.078,-0.007 0.065,-0.01 0.054,-0.013L0.054,-0.097C0.079,-0.088 0.106,-0.081 0.136,-0.076C0.167,-0.07 0.201,-0.068 0.24,-0.068C0.268,-0.068 0.292,-0.07 0.312,-0.074C0.331,-0.079 0.348,-0.085 0.36,-0.094C0.373,-0.103 0.382,-0.113 0.387,-0.125C0.393,-0.138 0.396,-0.152 0.396,-0.168C0.396,-0.185 0.391,-0.2 0.382,-0.212C0.372,-0.224 0.359,-0.235 0.344,-0.245C0.328,-0.254 0.31,-0.263 0.29,-0.271C0.27,-0.279 0.25,-0.287 0.229,-0.296C0.208,-0.304 0.188,-0.314 0.168,-0.323C0.148,-0.333 0.13,-0.345 0.114,-0.359C0.099,-0.372 0.086,-0.388 0.076,-0.406C0.067,-0.424 0.062,-0.446 0.062,-0.471C0.062,-0.493 0.067,-0.514 0.076,-0.536C0.085,-0.557 0.099,-0.576 0.118,-0.592C0.137,-0.608 0.162,-0.622 0.192,-0.632C0.222,-0.642 0.258,-0.647 0.3,-0.647C0.311,-0.647 0.322,-0.646 0.335,-0.646C0.347,-0.645 0.36,-0.643 0.373,-0.641C0.386,-0.64 0.398,-0.638 0.411,-0.635C0.423,-0.633 0.435,-0.631 0.446,-0.628L0.446,-0.55C0.421,-0.557 0.396,-0.562 0.371,-0.566C0.346,-0.57 0.321,-0.572 0.298,-0.572C0.248,-0.572 0.211,-0.563 0.188,-0.547C0.165,-0.53 0.153,-0.508 0.153,-0.48C0.153,-0.463 0.158,-0.448 0.167,-0.436C0.177,-0.423 0.189,-0.412 0.205,-0.402C0.221,-0.393 0.239,-0.384 0.259,-0.376C0.279,-0.368 0.299,-0.36 0.32,-0.351C0.341,-0.343 0.361,-0.333 0.381,-0.323C0.401,-0.313 0.419,-0.301 0.435,-0.287C0.45,-0.274 0.463,-0.257 0.472,-0.239C0.482,-0.22 0.487,-0.198 0.487,-0.173Z" style="fill:rgb(255,209,179);fill-rule:nonzero;"/>
                </g>
                <g transform="matrix(78.369,0,0,78.369,1526.84,2022.29)">
                    <path d="M0.492,-0L0.379,-0L0.193,-0.398L0.139,-0.526L0.139,-0L0.058,-0L0.058,-0.638L0.17,-0.638L0.347,-0.261L0.411,-0.115L0.411,-0.638L0.492,-0.638L0.492,-0Z" style="fill:rgb(255,209,179);fill-rule:nonzero;"/>
                </g>
                <g transform="matrix(78.369,0,0,78.369,1569.15,2022.29)">
                    <path d="M0.231,-0.565L0.084,-0.565L0.084,-0.638L0.466,-0.638L0.466,-0.565L0.319,-0.565L0.319,-0.074L0.466,-0.074L0.466,-0L0.084,-0L0.084,-0.074L0.231,-0.074L0.231,-0.565Z" style="fill:rgb(255,209,179);fill-rule:nonzero;"/>
                </g>
                <g transform="matrix(78.369,0,0,78.369,1611.45,2022.29)">
                    <path d="M0.491,-0.529C0.467,-0.542 0.443,-0.551 0.418,-0.558C0.393,-0.565 0.366,-0.569 0.336,-0.569C0.302,-0.569 0.272,-0.563 0.246,-0.551C0.219,-0.539 0.197,-0.522 0.179,-0.5C0.161,-0.478 0.147,-0.451 0.137,-0.42C0.128,-0.389 0.123,-0.355 0.123,-0.318C0.123,-0.279 0.127,-0.244 0.135,-0.213C0.143,-0.182 0.155,-0.156 0.171,-0.134C0.188,-0.113 0.209,-0.096 0.235,-0.085C0.261,-0.074 0.292,-0.068 0.328,-0.068C0.334,-0.068 0.341,-0.068 0.348,-0.069C0.355,-0.069 0.362,-0.07 0.37,-0.072C0.377,-0.073 0.384,-0.074 0.39,-0.076C0.397,-0.077 0.403,-0.079 0.408,-0.081L0.408,-0.284L0.278,-0.284L0.278,-0.356L0.494,-0.356L0.494,-0.03C0.481,-0.024 0.467,-0.018 0.452,-0.013C0.437,-0.008 0.422,-0.004 0.406,-0.001C0.391,0.002 0.376,0.005 0.36,0.006C0.345,0.008 0.33,0.009 0.316,0.009C0.272,0.009 0.233,0.002 0.198,-0.012C0.163,-0.025 0.133,-0.046 0.109,-0.073C0.084,-0.099 0.065,-0.133 0.052,-0.173C0.039,-0.213 0.032,-0.259 0.032,-0.312C0.032,-0.364 0.04,-0.411 0.054,-0.453C0.069,-0.494 0.089,-0.53 0.116,-0.558C0.142,-0.587 0.174,-0.609 0.212,-0.624C0.249,-0.639 0.29,-0.647 0.335,-0.647C0.364,-0.647 0.391,-0.644 0.417,-0.639C0.443,-0.634 0.467,-0.626 0.491,-0.615L0.491,-0.529Z" style="fill:rgb(255,209,179);fill-rule:nonzero;"/>
                </g>
                <g transform="matrix(78.369,0,0,78.369,1653.75,2022.29)">
                    <path d="M0.491,-0.529C0.467,-0.542 0.443,-0.551 0.418,-0.558C0.393,-0.565 0.366,-0.569 0.336,-0.569C0.302,-0.569 0.272,-0.563 0.246,-0.551C0.219,-0.539 0.197,-0.522 0.179,-0.5C0.161,-0.478 0.147,-0.451 0.137,-0.42C0.128,-0.389 0.123,-0.355 0.123,-0.318C0.123,-0.279 0.127,-0.244 0.135,-0.213C0.143,-0.182 0.155,-0.156 0.171,-0.134C0.188,-0.113 0.209,-0.096 0.235,-0.085C0.261,-0.074 0.292,-0.068 0.328,-0.068C0.334,-0.068 0.341,-0.068 0.348,-0.069C0.355,-0.069 0.362,-0.07 0.37,-0.072C0.377,-0.073 0.384,-0.074 0.39,-0.076C0.397,-0.077 0.403,-0.079 0.408,-0.081L0.408,-0.284L0.278,-0.284L0.278,-0.356L0.494,-0.356L0.494,-0.03C0.481,-0.024 0.467,-0.018 0.452,-0.013C0.437,-0.008 0.422,-0.004 0.406,-0.001C0.391,0.002 0.376,0.005 0.36,0.006C0.345,0.008 0.33,0.009 0.316,0.009C0.272,0.009 0.233,0.002 0.198,-0.012C0.163,-0.025 0.133,-0.046 0.109,-0.073C0.084,-0.099 0.065,-0.133 0.052,-0.173C0.039,-0.213 0.032,-0.259 0.032,-0.312C0.032,-0.364 0.04,-0.411 0.054,-0.453C0.069,-0.494 0.089,-0.53 0.116,-0.558C0.142,-0.587 0.174,-0.609 0.212,-0.624C0.249,-0.639 0.29,-0.647 0.335,-0.647C0.364,-0.647 0.391,-0.644 0.417,-0.639C0.443,-0.634 0.467,-0.626 0.491,-0.615L0.491,-0.529Z" style="fill:rgb(255,209,179);fill-rule:nonzero;"/>
                </g>
            </g>
            <g transform="matrix(1,0,0,1,245.64,99.8363)">
                <g transform="matrix(78.369,0,0,78.369,1442.23,2022.29)">
                    <path d="M0.497,-0.222C0.497,-0.187 0.492,-0.155 0.482,-0.127C0.472,-0.098 0.458,-0.074 0.438,-0.054C0.419,-0.034 0.396,-0.018 0.368,-0.008C0.34,0.003 0.308,0.009 0.272,0.009C0.232,0.009 0.199,0.004 0.171,-0.007C0.143,-0.017 0.121,-0.032 0.103,-0.051C0.086,-0.07 0.073,-0.093 0.065,-0.12C0.057,-0.146 0.053,-0.176 0.053,-0.209L0.053,-0.638L0.14,-0.638L0.14,-0.216C0.14,-0.191 0.142,-0.169 0.147,-0.15C0.152,-0.131 0.16,-0.115 0.17,-0.103C0.181,-0.09 0.195,-0.08 0.212,-0.074C0.229,-0.067 0.25,-0.064 0.275,-0.064C0.321,-0.064 0.355,-0.077 0.377,-0.104C0.399,-0.131 0.41,-0.168 0.41,-0.217L0.41,-0.638L0.497,-0.638L0.497,-0.222Z" style="fill:rgb(255,209,179);fill-rule:nonzero;"/>
                </g>
                <g transform="matrix(78.369,0,0,78.369,1484.54,2022.29)">
                    <path d="M0.481,-0L0.114,-0L0.114,-0.638L0.202,-0.638L0.202,-0.074L0.481,-0.074L0.481,-0Z" style="fill:rgb(255,209,179);fill-rule:nonzero;"/>
                </g>
                <g transform="matrix(78.369,0,0,78.369,1526.84,2022.29)">
                    <path d="M0.508,-0.564L0.319,-0.564L0.319,-0L0.231,-0L0.231,-0.564L0.042,-0.564L0.042,-0.638L0.508,-0.638L0.508,-0.564Z" style="fill:rgb(255,209,179);fill-rule:nonzero;"/>
                </g>
                <g transform="matrix(78.369,0,0,78.369,1569.15,2022.29)">
                    <path d="M0.231,-0.565L0.084,-0.565L0.084,-0.638L0.466,-0.638L0.466,-0.565L0.319,-0.565L0.319,-0.074L0.466,-0.074L0.466,-0L0.084,-0L0.084,-0.074L0.231,-0.074L0.231,-0.565Z" style="fill:rgb(255,209,179);fill-rule:nonzero;"/>
                </g>
                <g transform="matrix(78.369,0,0,78.369,1611.45,2022.29)">
                    <path d="M0.492,-0L0.379,-0L0.193,-0.398L0.139,-0.526L0.139,-0L0.058,-0L0.058,-0.638L0.17,-0.638L0.347,-0.261L0.411,-0.115L0.411,-0.638L0.492,-0.638L0.492,-0Z" style="fill:rgb(255,209,179);fill-rule:nonzero;"/>
                </g>
                <g transform="matrix(78.369,0,0,78.369,1653.75,2022.29)">
                    <path d="M0.491,-0.529C0.467,-0.542 0.443,-0.551 0.418,-0.558C0.393,-0.565 0.366,-0.569 0.336,-0.569C0.302,-0.569 0.272,-0.563 0.246,-0.551C0.219,-0.539 0.197,-0.522 0.179,-0.5C0.161,-0.478 0.147,-0.451 0.137,-0.42C0.128,-0.389 0.123,-0.355 0.123,-0.318C0.123,-0.279 0.127,-0.244 0.135,-0.213C0.143,-0.182 0.155,-0.156 0.171,-0.134C0.188,-0.113 0.209,-0.096 0.235,-0.085C0.261,-0.074 0.292,-0.068 0.328,-0.068C0.334,-0.068 0.341,-0.068 0.348,-0.069C0.355,-0.069 0.362,-0.07 0.37,-0.072C0.377,-0.073 0.384,-0.074 0.39,-0.076C0.397,-0.077 0.403,-0.079 0.408,-0.081L0.408,-0.284L0.278,-0.284L0.278,-0.356L0.494,-0.356L0.494,-0.03C0.481,-0.024 0.467,-0.018 0.452,-0.013C0.437,-0.008 0.422,-0.004 0.406,-0.001C0.391,0.002 0.376,0.005 0.36,0.006C0.345,0.008 0.33,0.009 0.316,0.009C0.272,0.009 0.233,0.002 0.198,-0.012C0.163,-0.025 0.133,-0.046 0.109,-0.073C0.084,-0.099 0.065,-0.133 0.052,-0.173C0.039,-0.213 0.032,-0.259 0.032,-0.312C0.032,-0.364 0.04,-0.411 0.054,-0.453C0.069,-0.494 0.089,-0.53 0.116,-0.558C0.142,-0.587 0.174,-0.609 0.212,-0.624C0.249,-0.639 0.29,-0.647 0.335,-0.647C0.364,-0.647 0.391,-0.644 0.417,-0.639C0.443,-0.634 0.467,-0.626 0.491,-0.615L0.491,-0.529Z" style="fill:rgb(255,209,179);fill-rule:nonzero;"/>
                </g>
            </g>
        </g>
        <g id="SSNIGGCONSULTING1" serif:id="SSNIGGCONSULTING">
        </g>
    </g>
</svg>
