<?xml version="1.0" encoding="UTF-8" standalone="no"?>
<!DOCTYPE svg PUBLIC "-//W3C//DTD SVG 1.1//EN" "http://www.w3.org/Graphics/SVG/1.1/DTD/svg11.dtd">
<svg width="100%" height="100%" viewBox="0 0 24 24" version="1.1" xmlns="http://www.w3.org/2000/svg" xmlns:xlink="http://www.w3.org/1999/xlink" xml:space="preserve" xmlns:serif="http://www.serif.com/" style="fill-rule:evenodd;clip-rule:evenodd;stroke-linejoin:round;stroke-miterlimit:2;">
    <path d="M22,6.032C22,4.962 21.575,3.937 20.819,3.181C20.063,2.425 19.038,2 17.968,2L6.042,2C4.97,2 3.942,2.426 3.184,3.184C2.426,3.942 2,4.97 2,6.042L2,17.989C2,19.053 2.423,20.073 3.175,20.825C3.927,21.577 4.947,22 6.011,22L17.989,22C19.053,22 20.073,21.577 20.825,20.825C21.577,20.073 22,19.053 22,17.989L22,6.032ZM18,5.398L13.602,13.5L13.602,13.699L16.5,18.699C16.602,18.898 16.5,19.102 16.301,19.102L14,19.102C13.898,19.102 13.801,19.102 13.801,19L10.801,13.801L10.801,13.602L15.398,5.301C15.398,5 15.5,5 15.602,5L17.801,5C17.898,5 18.102,5.199 18,5.398ZM8.398,15.102L6.199,15.102C6,15.102 5.898,14.898 6,14.699L8.301,10.5L8.301,10.301L6.801,7.699C6.699,7.5 6.801,7.301 7,7.301L9.199,7.301C9.301,7.301 9.398,7.301 9.398,7.398L11.102,10.301L11.102,10.5L8.602,15C8.602,15.102 8.5,15.102 8.398,15.102Z" style="fill:rgb(255,99,0);fill-rule:nonzero;"/>
</svg>
