<?xml version="1.0" encoding="UTF-8" standalone="no"?>
<svg
   width="2628.835"
   height="689.76074"
   viewBox="0 0 2628.835 689.76074"
   version="1.1"
   xml:space="preserve"
   style="clip-rule:evenodd;fill-rule:evenodd;stroke-linejoin:round;stroke-miterlimit:2"
   id="svg440"
   sodipodi:docname="logo_aus_affinity.svg"
   inkscape:export-filename="..\..\..\Users\leoch\Documents\leochras.github.io\traucons\media\Switcher\consequent.svg"
   inkscape:export-xdpi="96"
   inkscape:export-ydpi="96"
   inkscape:version="1.2 (dc2aedaf03, 2022-05-15)"
   xmlns:inkscape="http://www.inkscape.org/namespaces/inkscape"
   xmlns:sodipodi="http://sodipodi.sourceforge.net/DTD/sodipodi-0.dtd"
   xmlns="http://www.w3.org/2000/svg"
   xmlns:svg="http://www.w3.org/2000/svg"
   xmlns:serif="http://www.serif.com/"><defs
   id="defs444" /><sodipodi:namedview
   id="namedview442"
   pagecolor="#505050"
   bordercolor="#eeeeee"
   borderopacity="1"
   inkscape:showpageshadow="0"
   inkscape:pageopacity="0"
   inkscape:pagecheckerboard="0"
   inkscape:deskcolor="#505050"
   showgrid="false"
   inkscape:zoom="0.64"
   inkscape:cx="1057.0313"
   inkscape:cy="92.96875"
   inkscape:window-width="3200"
   inkscape:window-height="1711"
   inkscape:window-x="-9"
   inkscape:window-y="-9"
   inkscape:window-maximized="1"
   inkscape:current-layer="g434" />
    <g
   transform="translate(-161.85681,-1262.8751)"
   id="g438">
        <g
   transform="matrix(2.21382,0,0,2.51096,-1684.81,-2673.13)"
   id="g408">
            <path
   d="m 1240.16,1598.99 c 0,-17.37 -15.99,-31.46 -35.68,-31.46 H 869.837 c -19.694,0 -35.683,14.09 -35.683,31.46 v 211.78 c 0,17.36 15.989,31.46 35.683,31.46 h 334.643 c 19.69,0 35.68,-14.1 35.68,-31.46 z"
   style="fill:#ff6300;fill-opacity:0"
   id="path404" />
            <path
   d="m 1240.16,1651.935 c 0,-17.37 -15.99,-31.46 -35.68,-31.46 H 869.837 c -19.694,0 -35.683,14.09 -35.683,31.46 v 105.89 c 0,17.36 15.989,31.46 35.683,31.46 h 334.643 c 19.69,0 35.68,-14.1 35.68,-31.46 z m -13.87,0 v 105.89 c 0,10.61 -9.78,19.23 -21.81,19.23 H 869.837 c -12.038,0 -21.811,-8.62 -21.811,-19.23 v -105.89 c 0,-10.62 9.773,-19.23 21.811,-19.23 h 334.643 c 12.03,0 21.81,8.61 21.81,19.23 z"
   style="fill:#ff6300"
   id="path406"
   sodipodi:nodetypes="ssssssssssssssssss"
   inkscape:export-filename="path406.svg"
   inkscape:export-xdpi="96"
   inkscape:export-ydpi="96" />
        </g>
        <g
   transform="matrix(4.4394,0,0,4.4394,-5762.01,-7506.8628)"
   id="g422">
            
            <g
   transform="translate(-93.4237,-68.308)"
   id="g420">
                <text
   x="1444.75"
   y="2148.49"
   style="font-size:78.369px;font-family:Consolas, monospace;fill:#ff6600"
   id="text418">C<tspan
   x="1487.05 1529.36 1571.66"
   y="2148.49 2148.49 2148.49"
   id="tspan416">ONS</tspan></text>
            </g>
        </g>
        <g
   id="SSNIGGCONSULTING"
   transform="matrix(4.4394,0,0,4.4394,-6393.07,-7691.5428)">
            
            <g
   transform="translate(245.64,99.8363)"
   id="g434">
                <text
   x="1442.23"
   y="2022.29"
   style="font-size:78.369px;font-family:Consolas, monospace;fill:#ffd1b3"
   id="text432">EQUENT</text>
            </g>
        </g>
        <g
   id="SSNIGGCONSULTING1"
   serif:id="SSNIGGCONSULTING">
        </g>
    </g>
</svg>
